<?xml version="1.0" encoding="UTF-8"?>
<svg id="Ebene_1" xmlns="http://www.w3.org/2000/svg" version="1.1" viewBox="0 0 841.89 211.29">
  <!-- Generator: Adobe Illustrator 29.8.3, SVG Export Plug-In . SVG Version: 2.1.1 Build 3)  -->
  <defs>
    <style>
      .st0 {
        fill: #8c6441;
      }

      .st1 {
        fill: #fdfaf0;
      }

      .st2 {
        fill: #d7974c;
      }

      .st3 {
        fill: #bb9355;
      }

      .st4 {
        fill: #e0a558;
      }

      .st5 {
        fill: #a6a354;
      }

      .st6 {
        fill: #d8a85f;
      }
    </style>
  </defs>
  <g>
    <path class="st0" d="M284.93,36.5c-18.05,0-31.44,12.95-34.79,28.82-13.54,9.9-20.09,27.07-20.09,42.5,0,22.27,13.68,42.21,36.24,42.21,16.88,0,31.15-11.35,40.75-26.64,7.57-11.94,12.81-27.22,12.81-42.36,0-22.12-11.35-44.54-34.93-44.54ZM298.9,119.03c-4.95,12.23-13.25,23.43-26.2,23.43-18.63,0-27.95-23.58-27.95-44.68,0-6.99,1.02-16.01,4.37-23l.29.15c.87,15.28,11.94,27.66,26.2,27.66,12.08,0,22.85-8.88,23.87-24.74l-3.93-.29c-1.16,11.35-7.13,17.03-15.43,17.03-13.25,0-21.11-13.83-21.11-26.34,0-13.25,9.02-24.6,21.69-24.6,19.5,0,24.45,27.36,24.45,42.94,0,9.9-2.04,22.12-6.26,32.46Z"/>
    <path class="st0" d="M823.33,86.43c-9.75,0-16.74,10.33-22.42,26.64l-.44-.15c1.31-5.24,3.2-13.68,3.2-19.5,0-3.49-.58-6.84-3.78-6.84-2.77,0-8,2.33-10.92,4.22.29,2.04.44,3.78.44,6.55,0,2.57-.13,5.29-.34,8.07-5.26,25.47-16.76,37.05-26.44,37.05-8.15,0-14.12-8.01-14.99-20.38,7.57-1.89,16.16-5.97,21.25-10.33,4.8-4.08,8.15-9.61,8.15-14.99,0-6.26-4.37-10.48-11.35-10.48-5.97,0-12.37,3.06-17.47,7.28-9.9,8.15-14.26,19.5-14.26,29.55,0,2.24.22,4.34.62,6.31-4.75,10.63-9.8,13.48-12.99,13.48-4.8,0-8.88-6.4-8.88-21.83,0-4.95.44-10.63,1.02-16.45,16.59-6.26,26.64-27.66,26.64-44.98,0-8.73-2.62-20.09-8.15-23-.58-.44-1.31-.58-1.89-.58-2.18,0-8.73,3.35-13.39,6.84-3.93,8.73-7.13,19.5-8.88,25.91-3.95,14.4-7.33,31.1-8.54,44.14-4.81,21.47-10.65,29.65-14.89,29.65s-5.97-7.42-5.97-16.45c0-10.19,2.47-25.76,4.08-34.93-5.53-3.06-11.35-4.8-17.47-4.8-10.04,0-19.07,4.8-25.33,11.79-6.55,7.28-10.77,17.61-10.77,28.09,0,2.03.17,3.93.46,5.72-3.28,7.56-6.55,10.58-9.19,10.58-3.93,0-5.82-7.13-5.82-16.01,0-10.48,2.62-20.09,4.66-29.4-3.2-4.51-7.42-7.86-14.12-8.88-11.06,1.6-20.67,13.83-25.33,33.04h-.44c0-6.84,1.46-18.05,2.91-27.07,14.41-4.95,26.49-21.25,26.49-37.55,0-5.68-1.46-11.21-3.93-15.14-1.6-2.62-4.51-5.53-7.42-5.53-3.06,0-9.61,3.93-13.68,6.99-3.35,7.28-6.4,16.3-9.02,25.91-4.12,15.16-7.3,32.18-8.57,47.5-4.98,18.68-12.02,26.44-17.34,26.44-4.95,0-8.3-6.7-8.3-21.54,0-8.73,1.31-19.21,3.06-29.69l17.32-.73c.73-1.16,1.02-2.18,1.02-3.06s-.29-1.75-.73-2.47l-16.59,1.31c2.04-10.48,4.51-21.25,4.51-24.45,0-2.04-.87-3.06-2.91-3.06-2.91,0-8.44,2.47-11.64,4.51-1.16,6.11-1.6,10.04-3.93,23.73l-9.32.44c-.15.44-.29,1.46-.29,2.18,0,.87.15,1.75.58,2.62l8.15-.44c-.85,4.89-1.66,9.77-2.3,14.47-5.16,26.67-11.69,35.9-16.18,35.9-4.08,0-5.97-6.99-5.97-16.3,0-11.64,3.06-22.12,5.09-31.58-3.49-4.51-8.3-7.42-13.97-8.88-11.64,1.75-21.83,15.28-26.34,36.83h-.44c.29-3.06.73-6.99,1.31-10.92,1.46-9.46,3.35-17.61,3.35-21.25,0-2.62-1.02-3.93-3.2-3.93-2.91,0-8.3,2.33-11.21,4.22-.32,4.51-.89,9.15-1.49,13.83-5.18,26.02-16.82,37.84-26.61,37.84-8.15,0-14.12-8.01-14.99-20.38,7.57-1.89,16.16-5.97,21.25-10.33,4.8-4.08,8.15-9.61,8.15-14.99,0-6.26-4.37-10.48-11.35-10.48-5.97,0-12.37,3.06-17.47,7.28-9.9,8.15-14.26,19.5-14.26,29.55,0,2.33.24,4.52.67,6.57-4.2,9.21-8.92,13.23-12.75,13.23-4.95,0-8.3-6.7-8.3-21.54,0-8.44,1.16-18.34,3.2-30.57l18.78-.58c.73-1.02,1.02-2.04,1.02-3.06,0-.87-.29-1.75-.73-2.47l-18.05,1.02c2.04-10.19,4.37-20.38,4.37-23.43,0-2.04-.87-3.06-2.91-3.06-2.91,0-8.44,2.47-11.64,4.51l-3.78,22.71-24.16,1.16c2.18-10.77,4.66-21.98,4.66-25.33,0-2.04-.87-3.06-2.91-3.06-2.91,0-8.44,2.47-11.64,4.51l-4.08,24.6-9.17.29c-.15.44-.29,1.46-.29,2.18,0,.87.15,1.75.58,2.62l8.01-.44c-1.75,10.77-3.49,21.4-3.49,29.84,0,21.4,10.62,26.64,18.78,26.64,4.51,0,11.5-1.6,18.05-12.95l-3.64-2.33c-3.49,5.97-7.28,8.73-10.48,8.73-4.95,0-8.3-6.7-8.3-21.54,0-8.44,1.16-18.34,2.91-28.97l24.31-.87c-1.89,11.21-3.78,22.42-3.78,31.29,0,21.4,10.63,26.64,18.78,26.64,4.77,0,12.11-1.82,18.61-13.93,4.17,8.98,12.79,13.93,21.57,13.93,10.44,0,21.58-7.17,29.04-23.89-.05,1.22-.08,2.44-.08,3.66,0,6.84.73,19.8,6.7,19.8,1.6,0,5.24-1.02,8.73-2.91-.15-9.02,1.75-21.25,5.09-31,2.62-7.57,6.26-13.97,9.9-17.61,1.75-1.6,3.49-2.62,5.24-2.62,2.33,0,2.91,1.6,2.91,3.49,0,3.78-3.35,16.45-3.35,27.95,0,16.16,7.71,23,15.72,23,6.72,0,13.45-4.63,19.14-21.5,1.53,17.23,11.08,21.65,18.56,21.65,5.28,0,13.73-2.22,20.68-18.22.07,6.47.83,17.78,6.54,17.78,1.75,0,5.39-1.02,8.88-2.91,0-7.42,1.02-18.92,5.09-30.28,2.62-7.28,6.11-12.95,9.46-15.87,1.89-1.6,3.64-2.47,5.38-2.47,2.18,0,3.2,1.6,3.2,3.49,0,3.64-3.49,15.14-3.49,25.62,0,15.72,7.86,22.71,15.87,22.71,5.07,0,10.13-2.72,14.76-11.26,2.94,7.32,8.62,11.41,14.65,11.41,7.71,0,14.12-6.55,18.63-20.23h.29c1.02,13.83,8.3,20.23,16.01,20.23,6.48,0,13.03-4.57,18.57-20.6,1.94,16.34,10.96,20.6,17.81,20.6,8.19,0,14.55-6.05,19.21-14.22,4.12,9.16,12.83,14.22,21.69,14.22,10.13,0,20.94-6.75,28.38-22.44-.73,5.31-1.31,9.83-1.31,12.69,0,4.37,1.31,10.04,5.24,10.04,1.89,0,4.95-1.31,8.01-2.47.44-12.08,1.75-21.4,5.53-31.73,3.2-8.73,7.86-17.61,13.1-17.61,3.2,0,5.39,3.06,6.7,7.13,4.8-1.75,8.59-5.09,8.59-10.04s-3.49-8.59-9.02-8.59ZM750.7,102.29c2.33-5.39,5.82-8.88,9.9-8.88,3.35,0,5.24,2.47,5.24,6.7,0,10.19-10.63,15.43-18.19,17.03.15-4.66,1.16-10.33,3.06-14.85ZM720.57,67.51c1.6-6.99,3.49-13.54,5.97-20.52,3.35,5.24,4.8,12.52,4.8,19.21,0,13.97-6.11,28.67-16.88,32.9,1.6-11.21,3.93-22.56,6.11-31.58ZM594.23,45.53c3.78,4.8,5.39,10.92,5.39,16.59,0,11.5-6.4,23.29-16.45,27.07,2.91-15.43,6.26-29.98,11.06-43.67ZM419.86,102.29c2.33-5.39,5.82-8.88,9.9-8.88,3.35,0,5.24,2.47,5.24,6.7,0,10.19-10.62,15.43-18.19,17.03.15-4.66,1.16-10.33,3.06-14.85ZM661.33,125.15c-3.79,11.79-7.71,16.88-11.21,16.88-4.66,0-7.42-9.02-7.42-19.07,0-9.32,2.33-19.07,5.68-25.33,2.91-2.62,6.7-3.93,10.48-3.93,3.2,0,6.55,1.02,9.32,2.91-1.6,8.59-4.22,20.38-6.84,28.53Z"/>
  </g>
  <path class="st6" d="M252.86,173.08c-.8-1.3,0-3.9,2.06-3.76,9.18,2.54,19.02,5.71,28.39,7.46,45.81,8.53,109.41,14.42,164.7,3.57s143.61-23.88,200.64-21.45c57.74,2.45,120.73,16.71,134.49,22.17,13.51,5.36,8.88,12.33-2.74,9.01-19.56-5.59-34.52-7.9-80.35-13.91-55.28-7.25-186.16,6.75-226.65,14.18-35.63,6.54-137.38,21.91-210.81-12.07-1.35-.6-9.45-4.76-9.73-5.2Z"/>
  <circle class="st6" cx="108.06" cy="102.69" r="76.38"/>
  <path class="st0" d="M26.96,132.06c-16.17-46.61,8.51-97.5,55.12-113.66,25.99-9.01,53.3-5.32,75.19,7.79-23.3-16.34-53.83-21.65-82.77-11.62C26.64,31.17,1.3,83.42,17.9,131.28c14.79,42.64,57.89,67.38,100.96,60.53-39.74,3.38-78.23-20.34-91.9-59.75Z"/>
  <path class="st1" d="M107.32,46.73c27.92,0,50.71,22.08,50.71,54.31,0,34.84-22.94,56.77-51.46,56.77-30.18,0-52.06-23.88-52.06-55.46,0-27.97,18.41-55.62,52.82-55.62ZM105.05,53.93c-15.39,0-26.71,16.36-26.71,45.31s10.11,51.37,30.48,51.37c14.34,0,25.5-15.05,25.5-44.99,0-32.39-11.77-51.69-29.28-51.69Z"/>
  <path class="st5" d="M176.18,41.79c-.14-.43-.1-.77.13-1.17,2.25-3.79,2.71-7.88,1.96-12.15-.09-.44-.15-.9-.57-1.28-.18.1-.42.16-.59.3-.74.62-1.21,1.43-1.6,2.29-.77,1.68-1.17,3.48-1.34,5.32-.02.2-.03.4-.06.59-.24.06-.25-.12-.29-.22-.64-1.61-1.25-3.23-1.91-4.83-.15-.37-.16-.71-.08-1.1.78-3.56.54-7.04-.92-10.39-.34-.79-.81-1.52-1.26-2.26-.16-.27-.39-.49-.6-.71-.16-.16-.42-.14-.56.02-.17.21-.37.44-.45.69-.23.69-.45,1.39-.57,2.1-.4,2.26-.23,4.49.39,6.69.1.35.31.7.2,1.19-.16-.16-.25-.24-.32-.33-1.55-1.74-3.34-3.13-5.48-4.05-.73-.31-1.5-.52-2.27-.74-.33-.09-.72-.17-.98.13-.29.35-.09.75.07,1.08.23.46.51.9.8,1.33,1.05,1.54,2.33,2.84,3.85,3.92,1.16.81,2.38,1.55,3.59,2.3.71.44,1.48.76,2.4.85.97,1.73,1.53,3.66,2.2,5.71-.26-.14-.42-.18-.5-.28-.85-1.16-1.96-2.06-3.05-2.96-1.03-.84-2.18-1.48-3.41-1.98-.38-.16-.79-.27-1.19-.33-.73-.1-1.07.33-.8,1,.17.45.4.88.64,1.31,2.12,3.84,5.31,6.42,9.35,8.03.16.05.32.12.48.19.03.01.06.03.19.13.16.42.36.94.54,1.45.19.52.37,1.04.56,1.56.17.49.36.98.5,1.48.15.52.5.98.48,1.65-.69-.69-1.29-1.3-1.91-1.89-1.23-1.14-2.58-2.1-4.14-2.75-.57-.25-1.18-.39-1.78-.54-.23-.06-.48-.05-.73-.04-.32.01-.52.26-.42.56.11.37.25.72.43,1.05,1.06,1.89,2.43,3.54,4.12,4.91.4.33.82.64,1.25.93,1.42.95,2.91,1.76,4.7,1.95.15.33.33.67.46,1.02.68,1.9,1.36,3.8,2.03,5.69.3-.1,2.1-.55,2.4-.6-.97-2.66-2.16-6.1-2.3-6.7,1-1.11,1.68-2.47,2.23-3.89,1.07-2.73,1.41-5.56,1.02-8.48-.05-.38-.13-.75-.24-1.12-.06-.22-.2-.41-.34-.67-.22.11-.44.16-.58.3-.39.4-.76.8-1.08,1.25-1.45,2.06-2.28,4.35-2.64,6.83-.04.26-.07.53-.11.79-.24.09-.26-.09-.3-.2-.55-1.64-1.09-3.29-1.66-4.92ZM168.69,17.94c.03-.09.16-.17.3-.32.23.4.44.72.62,1.05,1.04,2,1.54,4.14,1.65,6.38.04.92-.07,1.86-.11,2.79,0,.14,0,.34-.26.4-.24-.78-.35-1.55-.46-2.34-.19-1.4-.37-2.81-.56-4.22-.03-.27-.08-.55-.12-.82-.03-.13-.04-.29-.11-.39-.06-.11-.23-.26-.28-.24-.14.05-.33.17-.35.3-.05.33-.06.69-.02,1.03.15,1.34.33,2.69.48,4.02.04.34.06.67.1,1.01-.07.02-.14.03-.2.05-1.23-2.82-1.35-5.73-.69-8.71ZM168.47,29.98c-1.18-.71-2.4-1.38-3.54-2.16-1.6-1.1-3.01-2.44-4.15-4.04-.19-.27-.49-.5-.43-.9,1.76.36,4.87,2.34,6.26,4.02-.27-.17-.45-.26-.62-.38-.67-.48-1.34-.98-2.02-1.45-.23-.16-.48-.28-.73-.41-.19-.1-.4-.12-.55.09-.11.16-.02.34.1.46.22.22.45.43.7.61.78.58,1.58,1.12,2.36,1.71.86.64,1.69,1.31,2.52,1.99.14.1.24.28.39.47-.15,0-.24.02-.29,0ZM175.41,49.71c-.33-.27-.57-.47-.8-.67-1.04-.9-2.09-1.81-3.16-2.7-.26-.22-.56-.4-.86-.59-.15-.1-.37-.12-.45.05-.07.12-.09.36-.02.46.18.24.42.46.65.65,1.5,1.23,3.01,2.46,4.51,3.69.1.09.17.22.32.42-.23-.06-.34-.06-.42-.11-3-1.43-5.32-3.61-7.07-6.4-.05-.07,0-.19,0-.29,2.27.17,6.38,3.81,7.3,5.47ZM171.19,38.22c-.34-.28-.59-.51-.86-.72-1.05-.85-2.09-1.71-3.14-2.56-.24-.19-.47-.38-.77-.36-.24.27-.2.51-.03.71.15.19.33.36.51.51,1.1.9,2.2,1.8,3.3,2.69.67.55,1.33,1.11,2,1.66.1.09.18.21.4.46-3.75-1.78-6.61-4.21-8.49-8,1.93.68,3.36,1.69,4.68,2.88,1.73,1.57,2.02,1.89,2.39,2.73ZM175.68,39.21c.08-.58.18-1.16.29-1.73.35-1.88.71-3.75,1.06-5.62.09-.45-.06-.78-.3-.76-.36.02-.41.34-.46.6-.22.91-.42,1.82-.6,2.73-.14.71-.24,1.41-.47,2.27-.39-2.54.82-6.59,2.08-7.91.84,2.84.12,8.51-1.57,10.87-.02-.2-.06-.33-.03-.44ZM181.23,43.85c.14-.43.24-.87.32-1.31.03-.14-.06-.31-.11-.56-.21.15-.39.22-.45.35-.2.36-.38.74-.51,1.13-.27.86-.5,1.73-.76,2.59-.12.42-.2.86-.45,1.24-.07-.04-.11-.07-.12-.08,0-.14-.02-.27-.01-.41.13-1.21.37-2.4.77-3.56.4-1.14.98-2.21,1.63-3.24.12-.19.24-.42.54-.4.83,2.86-.65,9.47-2.54,10.94.06-.38.09-.67.15-.98.39-1.94.95-3.83,1.53-5.72Z"/>
  <path class="st5" d="M199.5,109.73c.31-.33.62-.47,1.08-.46,4.41.1,8.2-1.51,11.55-4.26.34-.29.71-.58.83-1.13-.18-.11-.34-.29-.55-.37-.9-.34-1.84-.35-2.78-.27-1.85.15-3.61.69-5.29,1.45-.18.08-.36.17-.54.24-.18-.18-.02-.28.04-.36,1.09-1.35,2.2-2.68,3.26-4.04.25-.32.54-.49.92-.61,3.48-1.07,6.39-2.99,8.6-5.91.52-.68.93-1.45,1.35-2.21.16-.27.23-.58.32-.87.06-.21-.08-.44-.3-.47-.27-.04-.56-.11-.82-.05-.71.14-1.43.29-2.11.53-2.16.76-4.02,2.01-5.63,3.63-.26.26-.46.61-.94.76.06-.21.09-.34.13-.45.76-2.2,1.08-4.45.84-6.76-.09-.79-.29-1.56-.46-2.34-.08-.33-.2-.71-.59-.79-.45-.08-.69.29-.9.59-.28.43-.53.89-.76,1.35-.83,1.67-1.33,3.43-1.52,5.27-.14,1.41-.18,2.83-.24,4.25-.03.83.06,1.66.44,2.51-1.03,1.7-2.43,3.13-3.9,4.72,0-.29-.05-.46,0-.57.59-1.31.83-2.71,1.08-4.11.23-1.31.21-2.63.05-3.94-.05-.41-.15-.82-.3-1.2-.27-.68-.81-.77-1.26-.2-.3.37-.57.78-.83,1.2-2.31,3.73-2.98,7.78-2.4,12.09.03.17.05.34.07.51,0,.04,0,.07-.02.22-.29.34-.64.77-1,1.18-.36.42-.72.84-1.09,1.26-.34.39-.68.79-1.04,1.17-.38.38-.61.91-1.2,1.23.26-.94.5-1.76.71-2.59.39-1.63.56-3.28.36-4.95-.06-.61-.24-1.21-.4-1.82-.06-.23-.19-.45-.32-.65-.17-.27-.49-.33-.7-.09-.27.27-.51.57-.7.89-1.13,1.85-1.89,3.86-2.25,6-.09.51-.16,1.03-.19,1.54-.13,1.7-.1,3.39.61,5.06-.21.29-.42.62-.66.9-1.31,1.53-2.64,3.05-3.96,4.56.23.21,1.51,1.56,1.7,1.8,1.84-2.15,4.26-4.88,4.71-5.29,1.45.32,2.97.25,4.49.03,2.91-.41,5.54-1.5,7.88-3.28.3-.23.59-.48.86-.76.16-.16.26-.38.42-.63-.21-.14-.36-.31-.54-.35-.53-.14-1.07-.27-1.62-.32-2.51-.25-4.91.15-7.25,1.06-.25.1-.5.2-.74.29-.19-.17-.05-.27.03-.36,1.16-1.28,2.33-2.57,3.47-3.87ZM216.59,91.49c.09-.02.23.06.42.11-.23.39-.41.74-.61,1.05-1.23,1.89-2.85,3.37-4.74,4.58-.78.49-1.65.86-2.48,1.28-.13.06-.29.17-.47-.03.56-.59,1.18-1.07,1.81-1.54,1.13-.85,2.26-1.7,3.4-2.56.22-.16.44-.34.65-.51.1-.09.23-.18.28-.29.07-.11.12-.33.07-.36-.11-.1-.32-.21-.43-.16-.32.12-.63.29-.91.49-1.09.79-2.18,1.6-3.26,2.4-.27.2-.55.38-.83.58-.06-.05-.1-.11-.14-.15,1.85-2.46,4.32-3.99,7.25-4.88ZM206,97.22c.04-1.38.02-2.77.14-4.14.17-1.94.64-3.82,1.48-5.6.14-.3.2-.67.57-.82.55,1.71.35,5.39-.43,7.43,0-.32,0-.52.03-.73.09-.82.19-1.65.27-2.47.02-.28.01-.55,0-.84,0-.21-.1-.41-.35-.43-.2-.02-.31.15-.35.31-.08.3-.15.6-.19.91-.12.96-.2,1.92-.33,2.9-.14,1.06-.31,2.12-.49,3.18-.02.18-.13.34-.22.57-.07-.13-.13-.2-.14-.26ZM192.22,112.95c.07-.42.13-.73.19-1.02.27-1.35.55-2.71.8-4.08.07-.34.08-.68.09-1.04,0-.18-.08-.38-.27-.37-.14,0-.36.1-.41.21-.13.27-.19.59-.25.89-.33,1.92-.67,3.83-1,5.74-.03.13-.11.26-.21.49-.06-.23-.12-.33-.12-.42-.23-3.32.53-6.4,2.1-9.3.04-.07.16-.09.25-.14.97,2.06-.18,7.43-1.18,9.04ZM200.16,103.63c.08-.43.15-.76.2-1.1.23-1.33.47-2.66.69-3.99.05-.3.1-.6-.06-.85-.36-.08-.54.08-.63.32-.09.22-.15.46-.2.69-.25,1.4-.49,2.8-.72,4.2-.15.86-.31,1.71-.46,2.56-.03.13-.09.26-.21.57-.29-4.14.42-7.82,2.8-11.33.36,2.02.18,3.76-.21,5.49-.52,2.28-.65,2.69-1.2,3.42ZM201.51,108.03c.55-.21,1.1-.41,1.65-.6,1.81-.61,3.62-1.22,5.42-1.84.43-.14.65-.43.52-.64-.19-.31-.5-.19-.75-.11-.9.26-1.79.53-2.67.82-.68.23-1.35.49-2.21.71,2.02-1.59,6.14-2.52,7.91-2.08-2.06,2.13-7.36,4.29-10.24,3.98.16-.12.26-.21.37-.25ZM200.19,115.14c.44-.09.88-.22,1.3-.36.14-.05.24-.2.43-.38-.24-.11-.39-.23-.53-.22-.41,0-.83.04-1.23.11-.88.18-1.75.41-2.63.61-.42.1-.85.25-1.3.22,0-.08,0-.13.01-.14.12-.07.23-.15.35-.21,1.12-.49,2.27-.86,3.48-1.08,1.19-.22,2.41-.23,3.62-.17.23,0,.49,0,.62.28-2.08,2.13-8.57,4.08-10.77,3.16.36-.13.63-.25.92-.35,1.88-.61,3.8-1.06,5.73-1.47Z"/>
  <g>
    <path class="st2" d="M206.57,121.28l-1.3.25s-.04.02,0,.05c.01.01.03.02.04.02s.02,0,.04,0c.17-.07.35-.1.54-.07.01,0,.01,0,0,0-.11.05-.22.08-.34.09-.04,0-.06.02-.06.06v.04s-.04.07-.08.08c-.19.02-.35.1-.47.21-.28.26-.55.45-.83.56-.25.1-.49.21-.73.34-.17.09-.36.15-.56.18-.37.04-.61.12-.72.22-.38.33-.99.8-1.81,1.39-.23.17-.75.57-1.57,1.22-.31.25-.74.47-1.07.78-.26.23-.49.38-.75.57-.16.12-.24.29-.51.36-.03.01-.06.03-.08.07-.01.02-.03.04-.04.05-.42.31-.83.6-1.21.95-.11.1-.24.21-.4.31-.55.37-1.11.85-1.65,1.42-.3.32-.91.85-1.83,1.58-.18.14-.43.27-.62.43-.02.02-.06.02-.08,0h0l-.03-.03s-.02-.01-.03,0l-.15.13c-.05.04-.07.04-.04-.03.03-.07.01-.13-.04-.17,2.9-4.19,6.66-7.6,11.24-9.67,1.65-.75,3.39-1.21,5.2-1.39h-.01Z"/>
    <g>
      <path class="st0" d="M221.96,136.96c-.3,1.89-.92,3.66-1.86,5.3-1.33,2.31-3.04,4.33-5.14,6.08-3.08,2.56-6.36,4.4-9.85,5.53-4.18,1.34-8.4,1.93-12.74,2.44-2.83.33-5.5.79-8.01,2.12-1.16.62-2.23,1.31-3.21,2.07-3.54,2.77-7.05,6.03-10.46,9.15-2.45,2.24-5.74,5.46-9.88,9.66-4.01,4.07-8.1,8.05-12.3,11.92-1.44,1.33-2.9,2.58-4.39,3.82-2.62,2.21-6.05,4.61-9.66,3.52-4.35-1.31-4.7-7.08-2.08-10.15.05.02.09.02.11.02.03,0,.06.02.06.05,0,.02,0,.03-.01.05-.18.22-.35.57-.54.76-.03.03-.05.07-.04.11,0,.04,0,.08-.01.12-.46.97-.62,1.97-.52,2.98.21,1.96,1.76,4.25,3.82,4.58,2.26.37,4.32-.45,6.16-1.73,2.59-1.8,4.33-3.42,7.1-5.94.87-.8,1.83-1.6,2.64-2.36,6.72-6.28,12.32-12.02,18.49-18.02,3.18-2.99,6.36-5.92,9.73-8.7,1.76-1.45,3.82-2.9,5.88-3.62,1.56-.54,2.92-.87,4.1-1,1.41-.15,2.86-.39,4.23-.53,4.5-.47,8.71-1.12,12.61-2.55,5.51-2.03,10.54-5.89,13.62-10.89.97-1.58,1.59-3.3,1.86-5.15,0-.01.01-.02.03-.02h0s.25.18.25.18c0,0,.01.02.01.03,0,.02,0,.06.02.14v.02Z"/>
      <path class="st4" d="M221.96,136.96c-.02-.07-.03-.12-.02-.14,0-.01,0-.02-.01-.03l-.25-.18s-.02,0-.03,0h0c-.26,1.86-.89,3.59-1.86,5.16-3.08,4.99-8.1,8.85-13.62,10.89-3.91,1.44-8.11,2.09-12.61,2.55-1.36.14-2.81.37-4.23.53-1.17.13-2.54.46-4.1,1-2.07.71-4.11,2.16-5.88,3.62-3.36,2.78-6.55,5.72-9.73,8.7-.1.11-.2.18-.31.2-.01,0-.03,0-.04-.02v-.02s.07-.08.11-.1c-.01.01-.02.02-.04.02-.04,0-.06-.02-.06-.05-.02-.31-.17-.44-.46-.4-.06,0-.09-.02-.07-.08.02-.06.02-.12,0-.17,0-.04-.03-.07-.06-.09-.15-.09-.26-.22-.33-.38,0-.02-.02-.03-.04-.02-.01,0-.03.01-.04.01-.02,0-.05.02-.05.04,0,.02,0,.03.01.04,0,0,.01.02,0,.03,0,0-.01,0-.02.01h-.12s-.03,0-.03-.01c-.03-.13-.02-.22.02-.27.17-.17.18-.33.04-.48-.03-.03-.05-.04-.09-.04-.02,0-.03,0-.05-.01-.03-.02-.05-.05-.05-.09,0-.19-.18-.33-.25-.48-.02-.05-.02-.09,0-.14l.13-.34s.02-.08,0-.12c-.02-.08-.03-.17-.02-.26,0-.03,0-.05-.04-.05h-.05s-.04-.01-.02-.05c.01-.02.03-.04.06-.03.05,0,.05-.01,0-.04-.02-.01-.05-.02-.07,0-.01,0-.02,0-.03,0,0,0,0-.01,0-.02.05-.09.13-.15.23-.19.04-.01.05-.06.04-.1,0,0,0-.02-.01-.02l-.04-.05s-.03-.05-.03-.08c-.03-.22-.14-.38-.31-.48-.05-.02-.05-.06,0-.09.1-.09.12-.21.08-.36-.01-.04,0-.08.03-.13.02-.04.04-.07.03-.11,0-.06-.02-.08-.07-.08-.01,0-.02,0-.03-.02,0,0,0-.02.01-.02l.13-.05s.03-.03.02-.05c0-.02-.03-.02-.04-.02-.02,0-.04,0-.06,0-.02-.02-.02-.05,0-.06h0l.47-.52c2.62-1.92,5.22-3.88,7.81-5.87,1.42-1.1,2.65-2.21,3.69-3.34,2.13-2.32,3.5-5.4,4.53-8.4,1.58-4.61,3.2-9.22,5.96-13.28.05.03.07.09.04.17-.02.07,0,.08.04.03l.15-.13s.02,0,.03,0l.03.03s.06.03.08,0h0c.2-.16.44-.29.62-.43.92-.73,1.53-1.25,1.83-1.58.55-.58,1.1-1.05,1.65-1.42.16-.1.29-.21.4-.31.38-.36.79-.65,1.21-.95.02-.01.04-.03.04-.05.02-.04.05-.06.08-.07.27-.08.35-.25.51-.36.26-.19.49-.34.75-.57.34-.3.76-.53,1.07-.78.81-.65,1.34-1.05,1.57-1.22.82-.59,1.43-1.05,1.81-1.39.12-.1.36-.18.72-.22.21-.03.39-.08.56-.18.24-.12.48-.24.73-.34.28-.11.56-.29.83-.56.12-.12.28-.19.47-.21.05,0,.07-.03.08-.08v-.04s.03-.06.07-.06c.12-.01.23-.04.34-.09.01,0,.01,0,0,0-.18-.03-.36,0-.54.07-.02,0-.03.01-.04,0-.02,0-.03,0-.04-.02-.03-.02-.02-.04,0-.05l1.3-.25c.2-.03.41-.05.63-.06,3.98-.17,7.39,1.07,10.23,3.72,2.87,2.67,4.27,6.23,4.63,10.09.05.58.02,1.23-.09,1.93h.02ZM215.26,135.44l.83-.63s.04-.02.05,0h.04s.03.02.05,0c.11-.13.24-.25.38-.35.6-.46,1.18-.93,1.75-1.42.03-.03.04-.07.03-.11-.08-.29-.03-.55-.18-.88-.2-.44-.41-.89-.63-1.32-1.5-2.92-3.82-4.76-6.96-5.52-1.85-.45-3.7-.5-5.57-.17-4.94.89-9.42,3.8-12.62,7.61-1.67,1.99-2.84,4.24-3.51,6.75-.13.48-.23.97-.3,1.46-.23,1.54-.2,3.53.42,4.98.14.33.39.84.75,1.54.16.31.76,1,.24,1.27-.21.12-.33.18-.34.19-.22.18-.42.34-.68.52-1.32.9-2.57,2.02-3.83,3.04-.02.01-.04.02-.06.03-.04,0-.07.03-.1.05-.4.4-.85.74-1.24,1.16-.31.34-.77.69-1.04.93-.19.17-.39.33-.59.48-.04.03-.06.06-.08.1-.04.1-.11.17-.2.22-.03.02-.03.04,0,.06l.05.03h.02c1.77-1.37,3.51-2.78,5.21-4.23.89-.76,1.8-1.49,2.72-2.2.15-.11.3-.24.43-.38.03-.04.07-.05.11-.04.27.06.55.11.83.14.44.05.78.22,1.19.35.04.01.09.02.13.01.08,0,.15,0,.22.05.1.06.23.04.32-.03.08-.07.18-.1.29-.07.04,0,.08,0,.11-.03.1-.1.21-.12.34-.09.04,0,.08,0,.12,0,.1-.02.19-.05.27-.1.04-.02.08-.03.13-.02.15.02.19.03.34-.03.13-.05.25-.1.38-.15.04-.01.08-.02.12-.02.12.01.23-.01.33-.09.04-.03.08-.03.11,0,.2.14.35-.04.51-.1.31-.1.62-.22.91-.36.06-.03.17-.03.33-.02.04,0,.08,0,.12-.03.11-.07.22-.15.32-.23.09-.08.19-.12.3-.15.16-.03.31-.06.47-.09.14-.03.36-.19.65-.5.06-.06.21-.15.47-.27.24-.1.41-.33.71-.38.04,0,.08-.03.12-.05.22-.18.46-.33.72-.44.24-.1.41-.32.65-.45.59-.35,1.14-.75,1.66-1.19.12-.1.29-.12.41-.22.29-.23.58-.45.9-.65.28-.17.52-.38.78-.58.2-.15.39-.31.56-.46.5-.47.91-.78,1.21-.96.23-.13.44-.29.62-.47.05-.05.12-.09.18-.11.03,0,.05-.02.06-.06.02-.05.05-.08.1-.11.21-.12.51-.29.9-.54.01,0,.05-.02.11-.04.03-.01.06-.04.08-.08.01-.03.04-.05.07-.07.15-.06.31-.16.47-.3.24-.21.8-.64,1.69-1.29.07-.05.17-.1.33-.14.26-.07.49-.22.68-.46.14-.17.31-.26.48-.39.32-.25.41-.58.85-.76.04-.02.07-.05.1-.09.11-.18.18-.29.23-.34.22-.2.44-.4.65-.61.03-.03.07-.05.11-.04h.04c.05.01.06,0,.03-.05,0-.01-.01-.02-.02-.03h0s0,.01,0,.01Z"/>
      <path class="st2" d="M215.26,135.45s.02.02.02.03c.03.04.02.06-.03.05h-.04s-.08,0-.11.03c-.21.21-.43.41-.65.61-.05.05-.13.16-.23.34-.02.04-.06.07-.1.09-.44.18-.54.51-.85.76-.17.13-.33.22-.48.39-.2.23-.43.38-.68.46-.15.04-.26.09-.33.14-.89.66-1.45,1.09-1.69,1.29-.16.14-.32.24-.47.3-.03.01-.06.04-.07.07-.02.04-.05.07-.08.08-.06.02-.09.03-.11.04-.38.24-.68.42-.9.54-.05.03-.08.06-.1.11-.01.03-.03.05-.06.06-.07.02-.13.05-.18.11-.19.19-.4.34-.62.47-.3.17-.71.49-1.21.96-.17.16-.35.31-.56.46-.26.19-.5.4-.78.58-.31.19-.62.41-.9.65-.12.1-.3.12-.41.22-.52.45-1.07.84-1.66,1.19-.23.13-.41.35-.65.45-.26.11-.49.26-.72.44-.03.03-.07.05-.12.05-.29.06-.47.28-.71.38-.25.11-.41.2-.47.27-.29.31-.5.47-.65.5-.16.03-.31.06-.47.09-.11.02-.21.07-.3.15-.1.08-.2.16-.32.23-.04.02-.08.03-.12.03-.16-.01-.27,0-.33.02-.3.13-.6.25-.91.36-.15.05-.31.23-.51.1-.04-.03-.07-.03-.11,0-.09.08-.2.11-.33.09-.04,0-.08,0-.12.02-.13.05-.26.1-.38.15-.15.07-.19.04-.34.03-.04,0-.09,0-.13.02-.08.05-.18.08-.27.1-.04,0-.08,0-.12,0-.13-.03-.24,0-.34.09-.03.03-.07.04-.11.03-.11-.03-.2,0-.29.07-.09.08-.22.09-.32.03-.07-.04-.14-.05-.22-.05-.05,0-.09,0-.13-.01-.41-.13-.75-.3-1.19-.35-.28-.03-.56-.08-.83-.14-.04,0-.08,0-.11.04-.14.14-.28.26-.43.38-.93.71-1.83,1.45-2.72,2.2-1.7,1.45-3.44,2.86-5.21,4.23,0,0-.02,0-.02,0l-.05-.03s-.03-.04,0-.06c.09-.05.16-.12.2-.22.02-.04.05-.07.08-.1.2-.15.4-.31.59-.48.27-.24.72-.59,1.04-.93.39-.42.83-.76,1.24-1.16.03-.03.06-.05.1-.05.02,0,.04-.01.06-.03,1.25-1.02,2.51-2.13,3.83-3.04.26-.17.45-.34.68-.52.01,0,.12-.07.34-.19.52-.28-.08-.97-.24-1.27-.36-.7-.61-1.21-.75-1.54-.62-1.45-.65-3.45-.42-4.98.07-.49.18-.98.3-1.46.67-2.51,1.84-4.76,3.51-6.75,3.2-3.81,7.68-6.72,12.62-7.61,1.87-.34,3.73-.28,5.57.17,3.14.76,5.46,2.6,6.96,5.52.22.43.43.87.63,1.32.14.33.09.59.18.88.01.04,0,.08-.03.11-.57.49-1.15.96-1.75,1.42-.14.11-.26.22-.38.35-.02.01-.03.02-.05.01h-.04s-.04-.02-.05,0l-.83.63h0s0-.01,0-.01Z"/>
      <path class="st2" d="M168.14,163.22l-.47.52s-.01.05,0,.07h0s.04.01.06,0,.04,0,.05.02c0,.01,0,.03-.02.04l-.13.05s-.02.02-.01.03.01.02.02.01c.05,0,.07.03.07.08,0,.04,0,.08-.03.11-.03.05-.04.09-.03.13.05.15.02.27-.08.36-.04.03-.04.07,0,.09.17.1.28.26.31.48,0,.03.01.05.03.08l.04.05s.02.08-.01.1c0,0-.01,0-.02.01-.11.04-.18.1-.23.19,0,0,0,.02,0,.02h.02s.05-.01.07,0c.04.02.04.04,0,.04-.03,0-.05.01-.06.03-.01.03,0,.04.02.05h.05s.05.02.04.05c-.01.09-.01.17.02.26.01.04.01.08,0,.12l-.13.34s-.01.09,0,.14c.07.16.24.29.25.48,0,.04.02.07.05.09.01.01.03.02.05.01.04,0,.07.02.09.04.14.15.13.32-.04.48-.04.04-.05.13-.02.27,0,.01.01.03.03.02h.12s.02-.02.02-.03c0,0,0-.01-.01-.02-.02-.01-.03-.02-.01-.04.01-.02.03-.04.05-.04,0,0,.02,0,.04-.01.02,0,.03,0,.04.02.07.16.18.28.33.38.04.02.06.05.06.09.01.06,0,.12,0,.17-.02.07,0,.09.07.08.29-.04.44.09.46.4,0,.04.02.06.06.05.01,0,.02,0,.04-.02-.04.01-.07.05-.11.1,0,.01,0,.03.01.04h.02c.1-.02.2-.09.31-.2-6.17,6-11.77,11.74-18.49,18.02-.81.76-1.77,1.56-2.64,2.36-2.77,2.52-4.52,4.14-7.1,5.94-1.84,1.28-3.9,2.09-6.16,1.73-2.05-.33-3.61-2.62-3.82-4.58-.11-1.02.06-2.01.52-2.98.02-.04.02-.08.01-.12-.01-.04,0-.08.04-.11.19-.19.36-.54.54-.76.02-.03.02-.07,0-.09,0-.01-.02-.02-.04-.01-.02,0-.06,0-.11-.02.58-.7,1.2-1.36,1.87-1.96,3.09-2.77,7.1-5.5,11.26-8.27,2.36-1.57,6.26-4.09,11.69-7.53,2.65-1.68,6.31-4.17,10.96-7.47v-.02Z"/>
    </g>
  </g>
  <g>
    <path class="st3" d="M186.98,103.66c1.72-.54,3.71-4.1,4.25-4.92.83-1.17,2.01-4.41,2.69-6.09.19-.49.49-.77,1.01-.96,1.55-.58,2.69-1.68,3.54-3.08.29-.47.54-.98.69-1.55-.43.51-.87,1.02-1.29,1.54-.67.83-1.43,1.55-2.37,2.07-1.72.95-3.3.57-4.56-.97-1.23-1.5-1.49-3.3-1.69-5.11-.27-2.39-.85-4.69-1.86-6.88-.21.05-.14.2-.11.28.93,2.71,1.25,5.52,1.6,8.34.16,1.31.38,2.62,1.21,3.72.56.74,1.27,1.3,2.16,1.54.57.15.59.36.39.86-.73,2.12-1.61,4.13-2.65,5.58-.75,1.31-3.05,4.12-2.99,5.61Z"/>
    <path class="st3" d="M204.27,74.31c-1.08,3.58-2.13,7.09-5.06,9.8-.03-.59-.05-.98-.07-1.37-.02-.3-.17-.41-.46-.36-1.21.22-3.15,2.1-3.39,3.32-.01.07-.03.14-.03.21,0,.28-.1.63.2.77.27.13.34-.25.54-.36.09-.05.19-.11.3-.17.02.32-.23.48-.31.72-.05.16-.32.29-.13.48.14.14.35.09.54.04,1.22-.36,2.08-1.21,2.92-2.11,2.34-2.49,3.78-5.46,4.62-8.76.16-.64.29-1.28.43-1.93.01-.06-.04-.13-.09-.28Z"/>
    <path class="st3" d="M186.53,46.12c.54,1.61,1.06,3.22,1.44,4.86.14.6.31,1.19.44,1.79.4,1.84,1.33,3.32,2.85,4.43.34.25.62.57.94.87.21-.38.12-.72.07-1.07-.36-2.52-1.32-4.77-2.95-6.74-1.01-1.22-1.93-2.51-2.64-3.95-.04-.07-.1-.14-.14-.2Z"/>
    <path class="st3" d="M202.86,69.93c-.39.49-.33,1.1-.44,1.66-.44,2.06-.92,4.09-1.94,5.95-.26.47-.54.93-1.02,1.2-.07-.04-.13-.05-.13-.08q-.37-1.29-1.53-.59c-1.29.78-2.21,1.79-2.2,3.41,0,.12-.01.24.01.35.07.29,0,.71.32.81.27.08.29-.37.48-.52.07-.06.14-.12.21-.19,0-.18.1-.39.25-.32.17.08-.02.25-.1.36,0,.37-.21.65-.46,1.08,1.02-.4,1.82-.89,2.42-1.65,2.65-3.3,3.83-7.16,4.15-11.33,0-.04-.02-.09-.03-.14h.01Z"/>
    <path class="st3" d="M194.93,83.43c.25-3.06-1.56-4.9-3.95-6.42-.07.58-.14,1.19-.23,1.95-1.67-2.08-2.84-4.27-3.9-6.54.79,2.41,1.84,4.7,3.44,6.69.36.45.63.93.85,1.47.59,1.49,1.7,2.47,3.26,3.1-.33-.74-.5-1.44-.64-2.21.61.58.64,1.41,1.18,1.97Z"/>
    <path class="st3" d="M193.13,88.13c.2.37.09.84.36,1.2,1.15-1.75.73-3.84-.41-5.36-.66-.88-1.5-1.61-2.28-2.43-1.24,2.87.37,7.06,2.22,7.76,0-.39,0-.79,0-1.19-.01-.11-.03-.21-.04-.32.16.07.18.19.13.34Z"/>
    <path class="st3" d="M194.59,73.8c-.19-.53-.58-.82-.66-1.35.46.36.69.88,1.25,1.22.05-1.22-.28-2.23-1.01-3.12-.73-.89-1.75-1.35-2.74-1.85-.12-.06-.28-.14-.36.05-.35.82-.61.1-.8-.09-2.26-2.31-3.92-5.04-5.53-7.81.92,2.2,2.1,4.27,3.53,6.18.62.83,1.28,1.65,2.04,2.37.26.25.4.58.49.93.26,1.1.92,1.95,1.71,2.73.58.58,1.34.46,2.08.73Z"/>
    <path class="st3" d="M202.04,64.69c-.43,3.17-.69,6.4-2.78,9.15-.33-.43-.34-.82-.43-1.17-.09-.33-.24-.35-.51-.23-1.75.8-3,3.33-2.56,5.21.03.11.08.22.25.27.23-.64.6-1.21,1.07-1.72-.18.68-.58,1.28-.76,2.16.72-.34,1.23-.72,1.63-1.22,2.46-3.1,3.92-6.6,4.09-10.62.03-.61.15-1.21,0-1.84Z"/>
    <path class="st3" d="M198.56,68.84c-.11-.43-.2-.87-.34-1.3-.11-.34-.31-.46-.62-.18-1.34,1.2-2.16,2.64-2.05,4.52.02.37.1.7.39.96.33-.03.18-.56.58-.53.07.35-.23.6-.26.99.82-.32,1.48-.8,1.86-1.53,1.8-3.48,3.15-7.09,3.06-11.11,0-.12-.02-.23-.18-.32-.15,1.15-.27,2.3-.46,3.43-.28,1.63-.85,3.18-1.44,4.72-.07.19-.22.29-.38.39,0,.09.12.25-.1.21-.2-.03-.07-.16-.05-.25Z"/>
    <path class="st3" d="M197.64,64.12c-.17-.76-.26-1.53-.54-2.27-.1-.27-.18-.45-.46-.17-1.68,1.65-2.16,4.57-1.54,6.41h.05c.39-.38.55-.96.99-1.29-.15.58-.54,1.11-.49,1.78,2.5-1.72,4.85-8.73,4.09-12.28-.18.27-.12.52-.13.76-.09,2.04-.41,4.03-1.16,5.94-.16.42-.34.83-.62,1.18-.04.1-.06.26-.17.23-.13-.04-.07-.18-.02-.28Z"/>
    <path class="st3" d="M194.64,78.54l-.76-1.34c.66.42.65,1.1,1.13,1.4.2-.23-.02-.5.1-.69.14-.24.18-.29.08-.59-.41-1.3-1.09-2.4-2.14-3.29-.62-.53-1.42-.6-2.11-.96-.02.05-.04.09-.05.13,0,.29.18.75-.07.85-.32.13-.49-.35-.67-.57-1.48-1.85-2.75-3.84-3.82-5.96.76,1.98,1.58,3.93,2.98,5.57.81.96,1.58,1.92,2.08,3.12.57,1.38,1.91,1.87,3.25,2.33Z"/>
    <path class="st3" d="M184.16,56.88c.78,1.5,1.7,2.84,2.88,3.94,1.57,1.46,2.62,3.18,3.3,5.21.4,1.21,1.07,2.33,2.32,2.93.44.21.87.33,1.36.16-.28-.43-.55-.84-.88-1.35.67.37.99.97,1.57,1.27.03-1.82-1.74-3.91-3.11-4.37-1.15-.39-1.94-1.15-2.52-2.16-.31-.54-.67-1.01-1.15-1.42-1.33-1.12-2.36-2.52-3.39-3.91-.08-.11-.11-.27-.38-.31Z"/>
    <path class="st3" d="M195.04,61.11c-.1.78-.21,1.56-.31,2.34.69-.8,1.11-1.71,1.28-2.72.27-1.62-.39-3.02-1.23-4.33-.31-.49-.51.06-.59.2-.58,1.14-1.02,2.32-.95,3.64.06,1.12.49,2.15.75,3.32.61-.78.61-1.71,1.05-2.44.02-.07.04-.13.06-.2-.01-.11-.02-.21-.03-.32,0,0,0-.02,0-.02v.02c0,.1,0,.21.02.31-.02.07-.04.13-.05.2Z"/>
    <path class="st3" d="M187.86,55.72c-.15.63.21,1.08.46,1.78-2.08-2.15-3.7-4.4-5.14-6.78,1.28,2.69,2.84,5.19,5.02,7.25.59.56.85,1.38,1.67,1.76.75.35,1.46.62,2.28.36-.66-2.21-1.92-3.82-4.29-4.36Z"/>
    <path class="st3" d="M188.91,59.8c.13,3.3,2.19,4.86,4.31,4.47-.15-.22-.51-.26-.55-.6.3-.07.56.41.77.17.22-.25-.07-.58-.2-.84-.52-1.1-1.28-1.98-2.44-2.44-.63-.25-1.25-.5-1.9-.76Z"/>
    <path class="st3" d="M192.71,58.84c2.3-4.64,1.07-9.05-.94-13.41,1.9,4.36,1.92,8.84.94,13.41Z"/>
    <path class="st3" d="M196.42,61.44c.55-.51.7-1.03.86-1.53.79-2.53.47-5.09.15-7.64-.09-.72-.25-1.43-.45-2.14.29,3.75.69,7.49-.56,11.32Z"/>
    <path class="st3" d="M195.1,68.09s-.03.11-.02.11c.12.05.08-.04.07-.09,0,0-.05-.01-.05-.01Z"/>
    <path class="st3" d="M196.76,81.97c.08-.11.27-.28.1-.36-.14-.07-.24.15-.25.32.05.01.09.02.14.04Z"/>
    <path class="st3" d="M193.13,88.13c.04-.15.03-.27-.13-.34.01.11.03.21.04.32.03,0,.06,0,.09.02Z"/>
    <path class="st3" d="M198.56,68.84c-.02.09-.15.22.05.25.22.04.1-.12.1-.21-.05-.01-.1-.03-.15-.04Z"/>
    <path class="st3" d="M197.64,64.12c-.05.1-.11.25.02.28.11.03.13-.13.17-.23-.06-.02-.13-.04-.19-.06Z"/>
    <path class="st3" d="M195.09,60.91c0-.1-.02-.21-.03-.31h0c.01.11.02.21.03.32h-.01Z"/>
    <polygon class="st3" points="195.07 60.59 195.08 60.57 195.07 60.59 195.07 60.59"/>
    <path class="st3" d="M195.11,60.91c-.02.07-.04.13-.06.2,0,0-.01,0-.01,0,.02-.07.04-.13.05-.2,0,0,.01,0,.01,0Z"/>
  </g>
</svg>